<?xml version="1.0" encoding="iso-8859-1"?>
<!-- Generator: Adobe Illustrator 19.0.0, SVG Export Plug-In . SVG Version: 6.00 Build 0)  -->
<svg version="1.1" id="Capa_1" xmlns="http://www.w3.org/2000/svg" xmlns:xlink="http://www.w3.org/1999/xlink" x="0px" y="0px"
	 viewBox="0 0 512.002 512.002" style="enable-background:new 0 0 512.002 512.002;" xml:space="preserve">
<linearGradient id="SVGID_1_" gradientUnits="userSpaceOnUse" x1="0" y1="257.999" x2="512.0019" y2="257.999" gradientTransform="matrix(1 0 0 -1 0 513.9999)">
	<stop  offset="0" style="stop-color:#00F2FE"/>
	<stop  offset="0.021" style="stop-color:#03EFFE"/>
	<stop  offset="0.293" style="stop-color:#24D2FE"/>
	<stop  offset="0.554" style="stop-color:#3CBDFE"/>
	<stop  offset="0.796" style="stop-color:#4AB0FE"/>
	<stop  offset="1" style="stop-color:#4FACFE"/>
</linearGradient>
<path style="fill:url(#SVGID_1_);" d="M112,326.001c11.046,0,20,8.954,20,20l0,0c0,11.046-8.954,20-20,20s-20-8.954-20-20l0,0
	C92,334.955,100.954,326.001,112,326.001z M167,346.001L167,346.001c0,11.046,8.954,20,20,20s20-8.954,20-20l0,0
	c0-11.046-8.954-20-20-20S167,334.955,167,346.001z M282,346.001L282,346.001c0-11.046-8.954-20-20-20s-20,8.954-20,20l0,0
	c0,11.046,8.954,20,20,20C273.046,366.001,282,357.047,282,346.001z M318,346.001L318,346.001c0,11.046,8.954,20,20,20
	s20-8.954,20-20l0,0c0-11.046-8.954-20-20-20S318,334.955,318,346.001z M258,492.001c0,11.046-8.954,20-20,20H80
	c-44.112,0-80-35.888-80-80v-164c0-44.112,35.888-80,80-80h23.963v-70.534c0-64.771,53.832-117.466,120-117.466
	s120,52.695,120,117.466v70.534H368c44.112,0,80,35.888,80,80v40c0,11.046-8.954,20-20,20s-20-8.954-20-20v-40
	c0-22.056-17.944-40-40-40H80c-22.056,0-40,17.944-40,40v164c0,22.056,17.944,40,40,40h158C249.046,472.001,258,480.955,258,492.001
	z M143.963,188.001h160v-70.534c0-42.715-35.888-77.466-80-77.466s-80,34.751-80,77.466L143.963,188.001L143.963,188.001z
	 M503.643,325.739c-8.982-6.431-21.477-4.362-27.904,4.62l-98.581,137.7c-2.692,3.122-6.066,3.796-7.874,3.916
	c-1.854,0.123-5.424-0.112-8.567-3.061l-63.708-62.171c-7.906-7.716-20.568-7.559-28.282,0.345
	c-7.715,7.905-7.561,20.567,0.345,28.282l63.82,62.281c0.06,0.058,0.119,0.116,0.18,0.173C342.639,506.933,355.41,512,368.55,512
	c1.129,0,2.261-0.037,3.393-0.113c14.314-0.954,27.679-7.915,36.666-19.097c0.232-0.29,0.456-0.585,0.673-0.887l98.981-138.26
	C514.692,344.662,512.624,332.168,503.643,325.739z"/>
<g>
</g>
<g>
</g>
<g>
</g>
<g>
</g>
<g>
</g>
<g>
</g>
<g>
</g>
<g>
</g>
<g>
</g>
<g>
</g>
<g>
</g>
<g>
</g>
<g>
</g>
<g>
</g>
<g>
</g>
</svg>
